<svg width="48" height="48" xmlns="http://www.w3.org/2000/svg" fill="none">
 <g>
  <title>Layer 1</title>
  <path stroke="null" stroke-width="10" fill-rule="evenodd" clip-rule="evenodd" d="m37.45424,10.51281c-3.23079,-3.1847 -7.50861,-5.09594 -12.04306,-5.38051c-4.53445,-0.28457 -9.01896,1.07676 -12.62481,3.83242c-3.60584,2.75566 -6.08926,6.7194 -6.99138,11.15863c-0.90203,4.43932 -0.16185,9.05404 2.08395,12.99149l-2.66465,9.70547l9.96176,-2.60431c2.75461,1.49731 5.84209,2.28171 8.97952,2.28133l0,0c3.71415,-0.0066 7.34308,-1.10936 10.42942,-3.16918c3.08635,-2.05973 5.49191,-4.98429 6.91344,-8.40506c1.42153,-3.42068 1.79545,-7.18443 1.07447,-10.81672c-0.72098,-3.6322 -2.50442,-6.97034 -5.12565,-9.59357l0.007,0zm-13.29168,28.82119c-2.7967,-0.00009 -5.54205,-0.74969 -7.94846,-2.17025l-0.57124,-0.34731l-5.92136,1.54522l1.58129,-5.73294l-0.36919,-0.58684c-1.84085,-2.92362 -2.6551,-6.3741 -2.31466,-9.8093c0.34053,-3.43511 1.81635,-6.66011 4.19553,-9.16799c2.37927,-2.50788 5.52701,-4.15646 8.94849,-4.68663c3.42139,-0.53016 6.92252,0.08817 9.95306,1.7578c3.03063,1.66962 5.4187,4.29588 6.78896,7.46597c1.37026,3.17003 1.64505,6.70415 0.78105,10.04694c-0.86391,3.34269 -2.81761,6.30441 -5.55387,8.41958c-2.73626,2.11517 -6.10004,3.26395 -9.56258,3.26574l-0.007,0zm8.55111,-11.66043c-0.46672,-0.23613 -2.78649,-1.36812 -3.20799,-1.52438c-0.42141,-0.15626 -0.74188,-0.23264 -1.04496,0.23613c-0.30298,0.46877 -1.2121,1.52089 -1.48727,1.8334c-0.27517,0.31251 -0.54684,0.34722 -1.01705,0.11807c-1.38133,-0.546 -2.65756,-1.32606 -3.77223,-2.30566c-1.02594,-0.94725 -1.90622,-2.04011 -2.61235,-3.2433c-0.27167,-0.46877 -0.0279,-0.72225 0.20545,-0.95489c0.23336,-0.23264 0.47022,-0.54515 0.69667,-0.81948c0.19278,-0.23651 0.34999,-0.4997 0.46672,-0.78128c0.06281,-0.12891 0.09223,-0.27149 0.08551,-0.41464c-0.00672,-0.14315 -0.04928,-0.28234 -0.12382,-0.40493c-0.11493,-0.23604 -1.04496,-2.5383 -1.44546,-3.47236c-0.4006,-0.93415 -0.76979,-0.78826 -1.04496,-0.80213c-0.27517,-0.01396 -0.58515,0 -0.89872,0c-0.23771,0.00632 -0.47164,0.06167 -0.68683,0.16276c-0.21529,0.101 -0.40712,0.24537 -0.56358,0.42407c-0.52943,0.49499 -0.95037,1.09389 -1.23632,1.75909c-0.28595,0.66511 -0.43068,1.38208 -0.4251,2.10565c0,2.30576 1.68232,4.5142 1.91568,4.84057c0.23336,0.32647 3.31251,5.042 8.01127,7.06994c0.87327,0.37626 1.76622,0.70547 2.67496,0.98611c0.95803,0.28941 1.97054,0.3524 2.95723,0.18408c0.90212,-0.13542 2.78649,-1.13199 3.16968,-2.22588c0.3831,-1.0938 0.3901,-2.03134 0.27517,-2.22579c-0.11493,-0.19445 -0.4076,-0.31251 -0.89172,-0.54515z" fill="white" id="svg_2"/>
 </g>

</svg>